<svg width="18" height="16" viewBox="0 0 18 16" fill="none" xmlns="http://www.w3.org/2000/svg">
<path d="M16.66 0.561994C16.1988 0.166034 15.298 0.237513 15.298 0.237513H1.81499L1.28743 0.841712C0.994887 1.17956 0.847876 1.61942 0.87849 2.06528C0.909103 2.51113 1.11486 2.92677 1.45083 3.22146C1.83281 3.55339 2.13225 3.65428 2.75093 3.65428H11.636L3.46787 13.0051C3.17147 13.3472 3.02231 13.7925 3.05292 14.2441C3.08353 14.6957 3.29142 15.1169 3.63127 15.4159C3.97343 15.7128 4.41917 15.8623 4.87116 15.8316C5.32315 15.801 5.74467 15.5928 6.04366 15.2525L16.6601 3.05001C16.8183 2.89181 17.8835 1.61235 16.66 0.561994Z" fill="white"/>
</svg>
